<svg width="1953" height="600" viewBox="0 0 1953 600" fill="none" xmlns="http://www.w3.org/2000/svg">
<path d="M774 88C821.667 88 861 105 892 139C923.333 172.667 939 214 939 263C939 312 923.333 353.5 892 387.5C861 421.167 821.667 438 774 438H642.5V88H774ZM774 413C814.667 413 848 398.667 874 370C900 341 913 305.333 913 263C913 220.667 900 185.167 874 156.5C848 127.5 814.667 113 774 113H669V413H774ZM1113.28 182.5C1149.95 182.5 1179.61 195.5 1202.28 221.5C1225.28 247.5 1236.78 278.333 1236.78 314C1236.78 315.333 1236.61 317.333 1236.28 320C1236.28 322.667 1236.28 324.667 1236.28 326H1009.78C1012.78 354 1023.95 376.667 1043.28 394C1062.95 411 1087.11 419.5 1115.78 419.5C1135.78 419.5 1153.28 415.333 1168.28 407C1183.28 398.667 1194.61 387.667 1202.28 374L1224.28 387C1213.95 404.333 1199.28 418.167 1180.28 428.5C1161.28 438.5 1139.61 443.5 1115.28 443.5C1076.95 443.5 1045.45 431.333 1020.78 407C996.115 382.333 983.781 351 983.781 313C983.781 275.667 995.781 244.667 1019.78 220C1044.11 195 1075.28 182.5 1113.28 182.5ZM1113.28 206.5C1084.95 206.5 1061.28 215.333 1042.28 233C1023.28 250.667 1012.45 273.5 1009.78 301.5H1210.78C1208.11 271.833 1197.45 248.667 1178.78 232C1160.45 215 1138.61 206.5 1113.28 206.5ZM1415.89 212.5H1341.39V375C1341.39 389.333 1344.06 399.667 1349.39 406C1354.72 412.333 1362.89 416 1373.89 417C1384.89 417.667 1398.89 417.167 1415.89 415.5V438C1382.22 443 1357.06 440.667 1340.39 431C1324.06 421.333 1315.89 402.667 1315.89 375V212.5H1260.89V188H1315.89V125.5L1341.39 118V188H1415.89V212.5ZM1500.88 237C1515.88 202 1543.71 184.5 1584.38 184.5V208.5C1560.71 208.5 1540.88 216.167 1524.88 231.5C1508.88 246.5 1500.88 269 1500.88 299V438H1475.88V188H1500.88V237ZM1661.56 122C1657.56 125.667 1652.89 127.5 1647.56 127.5C1642.23 127.5 1637.56 125.667 1633.56 122C1629.56 118 1627.56 113.167 1627.56 107.5C1627.56 102.167 1629.56 97.6666 1633.56 94C1637.56 90 1642.23 88 1647.56 88C1652.89 88 1657.56 90 1661.56 94C1665.56 97.6666 1667.56 102.167 1667.56 107.5C1667.56 113.167 1665.56 118 1661.56 122ZM1635.06 438V188H1660.06V438H1635.06ZM1940.11 438H1909.61L1825.11 329L1740.61 438H1710.11L1810.11 309.5L1716.11 188H1746.61L1825.11 289.5L1904.11 188H1934.11L1840.61 309L1940.11 438Z" fill="#34D399"/>
<path d="M505.537 252.458L505.531 252.452L505.511 252.432L504.819 251.74L502.732 249.652L494.868 241.787C488.105 235.025 478.464 225.383 466.906 213.825C443.789 190.708 413.004 159.923 382.244 129.163L297.732 44.6525L269.958 16.8786L262.216 9.13639L260.197 7.11692L259.689 6.60938L259.565 6.4857L259.54 6.46019M505.537 252.458L261.308 1.51766C261.932 1.90833 262.523 2.37466 263.068 2.91692C263.046 2.89501 263.593 3.44249 264.655 4.50472C263.601 5.62611 261.992 6.48054 259.54 6.46019M505.537 252.458C507.48 254.424 507.472 257.542 505.598 259.473C505.594 259.476 505.591 259.48 505.587 259.484L505.428 259.644L504.891 260.183L502.825 262.258L495.036 270.082L467.322 297.917C444.403 320.936 413.866 351.607 383.311 382.294C352.757 412.982 322.186 443.686 299.199 466.773L271.357 494.735L263.484 502.641L261.372 504.763L260.811 505.326L260.659 505.478L260.617 505.52L260.605 505.533L260.602 505.536C260.602 505.536 260.601 505.536 260.601 505.536C258.672 507.465 255.563 507.519 253.524 505.527C200.313 452.544 59.759 312.597 6.53392 259.602C4.44577 257.509 4.56036 254.367 6.44797 252.479C6.44823 252.478 6.44848 252.478 6.44874 252.478L6.52269 252.404L6.94958 251.977L8.81877 250.108L16.301 242.625L43.707 215.219L128.015 130.91C189.587 69.3378 251.641 7.28213 252.467 6.45602C254.4 4.5256 257.569 4.5049 259.532 6.4526M505.537 252.458L259.532 6.4526M259.54 6.46019L259.539 6.45967M259.54 6.46019L259.539 6.45967M259.532 6.4526L259.536 6.45603L259.539 6.45967M259.532 6.4526L259.539 6.45967M-0.622324 245.407L-0.621548 245.406L-0.549032 245.333L-0.121767 244.906L1.74757 243.037L9.22989 235.554L36.6359 208.148L120.944 123.838C182.539 62.2428 244.611 0.170162 245.392 -0.61135L245.395 -0.614067C251.215 -6.43334 260.711 -6.48645 266.596 -0.626338C266.596 -0.626172 266.596 -0.625992 266.596 -0.625826L263.068 2.91671L-0.622324 245.407ZM-0.622324 245.407C-0.623758 245.408 -0.625192 245.41 -0.626625 245.411M-0.622324 245.407L-0.626625 245.411M-0.626625 245.411C-0.628251 245.413 -0.629895 245.414 -0.63152 245.416M2.91358 248.942L-0.610566 245.417L4.47007 247.385C6.3351 249.371 6.43391 252.183 6.43711 252.466L2.91358 248.942ZM245.154 325.883L251.69 327.971L251.676 321.109L251.401 194.076L251.386 187.332L244.937 189.306L42.031 251.42L26.7468 256.099L41.9728 260.964L245.154 325.883ZM267.864 189.55L261.386 187.567L261.401 194.342L261.674 320.7L261.689 327.531L268.196 325.452L470.03 260.963L485.256 256.098L469.971 251.419L267.864 189.55ZM261.356 173.411L261.364 177.101L264.892 178.182L465.086 239.466L470.085 231.15L269.589 30.6527L261.028 22.0909L261.054 34.1991L261.356 173.411ZM247.819 177.966L251.364 176.881L251.356 173.174L251.054 34.0734L251.027 22.0393L242.518 30.5487L41.9181 231.15L46.9172 239.466L247.819 177.966ZM251.722 342.119L251.714 338.476L248.243 337.367L47.9164 273.361L42.8668 281.667L243.489 481.422L252.043 489.939L252.017 477.868L251.722 342.119ZM265.199 336.908L261.713 338.022L261.721 341.682L262.016 477.845L262.042 489.916L270.559 481.362L469.523 281.533L464.458 273.243L265.199 336.908Z" fill="#34D399" stroke="#34D399" stroke-width="10"/>
</svg>
