<svg width="302" height="308" viewBox="0 0 302 308" fill="none" xmlns="http://www.w3.org/2000/svg">
<path d="M188.998 0.479095C187.56 0.998474 185.802 2.83627 179.17 10.9865C177.212 13.4236 174.136 17.1791 172.378 19.3365C170.62 21.454 168.383 24.2507 167.384 25.5291C166.385 26.8076 164.068 29.6842 162.19 32.0014C160.312 34.2787 156.916 38.5136 154.639 41.3502C152.362 44.1868 149.006 48.3019 147.208 50.4993C145.37 52.6966 143.013 55.6131 141.974 56.9715C140.896 58.3299 137.42 62.6048 134.224 66.5201C131.027 70.3955 127.192 75.1498 125.634 77.1074C124.116 79.0251 119.961 84.139 116.445 88.4539C110.252 96.0448 107.056 100 91.6745 119.017C80.2482 133.12 79.9286 133.56 79.1695 134.679C78.8099 135.318 78.2106 135.797 77.891 135.797C77.5714 135.757 74.7747 132.401 71.6984 128.286C60.2721 112.985 59.473 112.106 55.9972 111.586C54.0395 111.307 51.4426 112.106 49.8046 113.544C47.7271 115.302 46.6084 119.257 47.4874 121.494C47.9268 122.533 52.8809 138.953 55.9173 149.381C56.3967 151.019 57.2357 153.736 57.7551 155.374C58.2745 157.012 58.7139 158.73 58.674 159.169C58.674 159.609 57.835 161.007 56.7962 162.246C50.8433 169.517 46.4087 174.95 42.5333 179.745C40.1362 182.741 32.1058 192.649 24.7146 201.758C2.58108 229.086 1.26266 230.764 0.58347 232.282C-1.21438 236.637 1.30261 241.591 5.93707 242.869C8.09449 243.428 11.0509 242.629 13.4481 240.792C17.3634 237.715 22.1577 233.92 35.222 223.412C42.8529 217.3 50.4838 211.187 52.2017 209.829C53.9197 208.47 55.8773 206.912 56.5166 206.353C65.8254 198.602 171.419 114.503 172.458 114.023C174.416 113.104 177.931 113.344 179.889 114.583C180.808 115.142 183.125 117.859 186.042 121.734C188.599 125.17 190.756 128.086 190.796 128.166C190.916 128.326 193.113 126.608 195.55 124.451C196.229 123.852 198.147 122.253 199.865 120.895C201.623 119.537 208.135 114.343 214.408 109.349C220.64 104.355 226.154 100 226.593 99.6804L227.432 99.0811L226.553 95.9649C226.034 94.2469 224.955 90.6113 224.116 87.8546C223.317 85.0979 222.158 81.1426 221.559 79.0651C220.96 76.9876 220.201 74.5505 219.921 73.6715C219.641 72.7926 218.922 70.4354 218.323 68.4778C216.605 62.6847 215.287 58.25 214.488 55.6931C213.689 53.1361 209.693 39.6323 207.696 32.7205C207.017 30.4033 206.217 27.8064 205.938 26.9275C205.099 24.3705 203.94 20.5351 202.142 14.3425C199.745 6.19226 198.706 3.43556 197.428 2.237C195.231 0.119537 191.955 -0.559662 188.998 0.479095Z" fill="#34D399"/>
<path d="M290.97 64.7608C289.891 65.2402 274.15 77.6254 258.249 90.49C255.852 92.4477 252.057 95.484 249.859 97.2419C247.662 98.9599 240.151 104.953 233.199 110.546C226.248 116.139 218.497 122.292 216.02 124.29C209.388 129.603 192.967 142.747 188.133 146.623C181.781 151.737 179.743 153.375 178.345 154.453C177.626 155.013 167.638 163.003 156.171 172.232C127.246 195.484 129.284 194.006 126.087 194.006C122.851 194.006 120.934 192.408 115.82 185.496C113.303 182.06 111.105 179.264 110.906 179.264C110.746 179.224 108.468 180.982 105.872 183.099C103.235 185.257 99.679 188.133 97.961 189.492C95.484 191.489 83.5383 201.078 75.9873 207.15C74.6289 208.229 74.3892 209.228 75.0684 210.866C75.2682 211.385 75.9873 213.663 76.6665 215.98C77.3856 218.297 78.2646 221.254 78.6641 222.572C79.0636 223.89 79.8627 226.567 80.462 228.565C81.5007 232.041 81.8203 233.079 84.0177 240.351C84.9366 243.347 87.6533 252.376 89.8907 259.927C90.3301 261.366 91.0093 263.683 91.4488 265.121C92.7672 269.676 94.1656 274.43 95.0445 277.307C95.5239 278.825 96.1232 280.902 96.4029 281.901C96.7225 282.9 97.2419 284.578 97.6014 285.696C97.9211 286.775 99.1196 290.651 100.198 294.286C103.035 303.835 103.674 305.153 106.311 306.512C107.829 307.271 111.824 307.311 113.263 306.552C114.981 305.673 116.059 304.474 122.811 296.084C126.167 291.929 129.883 287.335 131.041 285.896C132.2 284.458 135.037 280.942 137.354 278.106C139.631 275.229 142.268 271.993 143.187 270.914C144.106 269.796 145.584 267.998 146.423 266.879C148.061 264.801 155.652 255.373 159.607 250.539C161.925 247.742 169.555 238.313 174.629 231.961C176.147 230.083 179.224 226.328 181.461 223.611C183.698 220.894 186.615 217.258 187.933 215.58C190.171 212.744 194.486 207.35 200.039 200.598C203.515 196.323 208.469 190.211 210.706 187.374C216.659 179.863 223.81 171.233 224.05 171.233C224.21 171.233 227.726 175.788 231.921 181.301C236.076 186.855 240.111 192.128 240.87 192.967C242.548 194.845 244.226 195.604 246.623 195.604C251.138 195.604 254.454 192.328 254.454 187.893C254.414 186.136 254.134 185.057 249.899 171.034C248.421 166.199 246.663 160.366 245.984 158.049C245.305 155.732 244.426 152.815 244.026 151.577C243.587 150.298 243.267 148.86 243.267 148.381C243.267 147.342 244.745 145.264 249.979 138.912C251.937 136.595 258.529 128.485 264.642 120.894C270.754 113.303 278.026 104.313 280.782 100.918C283.539 97.5216 287.534 92.5675 289.652 89.9307C291.769 87.2938 294.965 83.3385 296.763 81.1412C300.679 76.3469 301.797 74.1895 301.757 71.7524C301.677 66.3589 295.884 62.6033 290.97 64.7608Z" fill="#34D399"/>
</svg>
