<svg width="920" height="308" viewBox="0 0 920 308" fill="none" xmlns="http://www.w3.org/2000/svg">
<path d="M223.998 0.479095C222.56 0.998474 220.802 2.83628 214.17 10.9865C212.212 13.4236 209.136 17.1791 207.378 19.3365C205.62 21.454 203.383 24.2507 202.384 25.5291C201.385 26.8076 199.068 29.6842 197.19 32.0014C195.312 34.2787 191.916 38.5136 189.639 41.3502C187.362 44.1868 184.006 48.3019 182.208 50.4993C180.37 52.6966 178.013 55.6131 176.974 56.9715C175.896 58.3299 172.42 62.6048 169.224 66.5201C166.027 70.3955 162.192 75.1498 160.634 77.1074C159.116 79.0251 154.961 84.139 151.445 88.4539C145.252 96.0448 142.056 100 126.675 119.017C115.248 133.12 114.929 133.56 114.169 134.679C113.81 135.318 113.211 135.797 112.891 135.797C112.571 135.757 109.775 132.401 106.698 128.286C95.2721 112.985 94.473 112.106 90.9972 111.586C89.0395 111.307 86.4426 112.106 84.8046 113.544C82.7271 115.302 81.6084 119.257 82.4874 121.494C82.9268 122.533 87.8809 138.953 90.9173 149.381C91.3967 151.019 92.2357 153.736 92.7551 155.374C93.2745 157.012 93.7139 158.73 93.674 159.169C93.674 159.609 92.835 161.007 91.7962 162.246C85.8434 169.517 81.4087 174.95 77.5333 179.745C75.1362 182.741 67.1058 192.649 59.7146 201.758C37.5811 229.086 36.2627 230.764 35.5835 232.282C33.7856 236.637 36.3026 241.591 40.9371 242.869C43.0945 243.428 46.0509 242.629 48.4481 240.792C52.3634 237.715 57.1577 233.92 70.222 223.412C77.8529 217.3 85.4838 211.187 87.2017 209.829C88.9197 208.47 90.8773 206.912 91.5166 206.353C100.825 198.602 206.419 114.503 207.458 114.023C209.416 113.104 212.931 113.344 214.889 114.583C215.808 115.142 218.125 117.859 221.042 121.734C223.599 125.17 225.756 128.086 225.796 128.166C225.916 128.326 228.113 126.608 230.55 124.451C231.229 123.852 233.147 122.253 234.865 120.895C236.623 119.537 243.135 114.343 249.408 109.349C255.64 104.355 261.154 100 261.593 99.6804L262.432 99.0811L261.553 95.9649C261.034 94.2469 259.955 90.6113 259.116 87.8546C258.317 85.0979 257.158 81.1426 256.559 79.0651C255.96 76.9876 255.201 74.5505 254.921 73.6715C254.641 72.7926 253.922 70.4354 253.323 68.4778C251.605 62.6847 250.287 58.25 249.488 55.6931C248.689 53.1361 244.693 39.6323 242.696 32.7205C242.017 30.4033 241.217 27.8064 240.938 26.9275C240.099 24.3705 238.94 20.5351 237.142 14.3425C234.745 6.19226 233.706 3.43557 232.428 2.237C230.231 0.119533 226.955 -0.559662 223.998 0.479095Z" fill="#34D399"/>
<path d="M325.97 64.7608C324.891 65.2402 309.15 77.6254 293.249 90.49C290.852 92.4477 287.057 95.484 284.859 97.2419C282.662 98.9599 275.151 104.953 268.199 110.546C261.248 116.139 253.497 122.292 251.02 124.29C244.388 129.603 227.967 142.747 223.133 146.623C216.781 151.737 214.743 153.375 213.345 154.453C212.626 155.013 202.638 163.003 191.171 172.232C162.246 195.484 164.284 194.006 161.087 194.006C157.851 194.006 155.934 192.408 150.82 185.496C148.303 182.06 146.105 179.264 145.906 179.264C145.746 179.224 143.468 180.982 140.872 183.099C138.235 185.257 134.679 188.133 132.961 189.492C130.484 191.489 118.538 201.078 110.987 207.15C109.629 208.229 109.389 209.228 110.068 210.866C110.268 211.385 110.987 213.663 111.666 215.98C112.386 218.297 113.265 221.254 113.664 222.572C114.064 223.89 114.863 226.567 115.462 228.565C116.501 232.041 116.82 233.079 119.018 240.351C119.937 243.347 122.653 252.376 124.891 259.927C125.33 261.366 126.009 263.683 126.449 265.121C127.767 269.676 129.166 274.43 130.045 277.307C130.524 278.825 131.123 280.902 131.403 281.901C131.722 282.9 132.242 284.578 132.601 285.696C132.921 286.775 134.12 290.651 135.198 294.286C138.035 303.835 138.674 305.153 141.311 306.512C142.829 307.271 146.824 307.311 148.263 306.552C149.981 305.673 151.059 304.474 157.811 296.084C161.167 291.929 164.883 287.335 166.041 285.896C167.2 284.458 170.037 280.942 172.354 278.106C174.631 275.229 177.268 271.993 178.187 270.914C179.106 269.796 180.584 267.998 181.423 266.879C183.061 264.801 190.652 255.373 194.607 250.539C196.925 247.742 204.555 238.313 209.629 231.961C211.147 230.083 214.224 226.328 216.461 223.611C218.698 220.894 221.615 217.258 222.933 215.58C225.171 212.744 229.486 207.35 235.039 200.598C238.515 196.323 243.469 190.211 245.706 187.374C251.659 179.863 258.81 171.233 259.05 171.233C259.21 171.233 262.726 175.788 266.921 181.301C271.076 186.855 275.111 192.128 275.87 192.967C277.548 194.845 279.226 195.604 281.623 195.604C286.138 195.604 289.454 192.328 289.454 187.893C289.414 186.136 289.134 185.057 284.899 171.034C283.421 166.199 281.663 160.366 280.984 158.049C280.305 155.732 279.426 152.815 279.026 151.577C278.587 150.298 278.267 148.86 278.267 148.381C278.267 147.342 279.745 145.264 284.979 138.912C286.937 136.595 293.529 128.485 299.642 120.894C305.754 113.303 313.026 104.313 315.782 100.918C318.539 97.5216 322.534 92.5675 324.652 89.9307C326.769 87.2938 329.965 83.3385 331.763 81.1412C335.679 76.3469 336.797 74.1895 336.757 71.7524C336.677 66.3589 330.884 62.6033 325.97 64.7608Z" fill="#34D399"/>
<path d="M416.096 117.51V170H397.98V117.51H369.514V102.91H444.611V117.51H416.096ZM474.738 170H456.623V102.91H502.033C506.916 102.91 511.05 103.415 514.436 104.424C517.854 105.433 520.62 106.865 522.736 108.721C524.885 110.576 526.431 112.822 527.375 115.459C528.352 118.063 528.84 120.977 528.84 124.199C528.84 127.031 528.433 129.505 527.619 131.621C526.838 133.737 525.764 135.56 524.396 137.09C523.062 138.587 521.499 139.857 519.709 140.898C517.919 141.94 516.031 142.803 514.045 143.486L536.018 170H514.826L494.514 145.293H474.738V170ZM510.529 124.102C510.529 122.799 510.35 121.693 509.992 120.781C509.667 119.87 509.081 119.137 508.234 118.584C507.388 117.998 506.249 117.575 504.816 117.314C503.417 117.054 501.659 116.924 499.543 116.924H474.738V131.279H499.543C501.659 131.279 503.417 131.149 504.816 130.889C506.249 130.628 507.388 130.221 508.234 129.668C509.081 129.082 509.667 128.333 509.992 127.422C510.35 126.51 510.529 125.404 510.529 124.102ZM602.912 157.305H565.51L559.211 170H538.996L574.104 102.91H594.318L629.426 170H609.211L602.912 157.305ZM572.004 144.219H596.516L584.309 119.512L572.004 144.219ZM658.527 117.217V128.887H702.131V143.193H658.527V170H640.412V102.91H704.523V117.217H658.527ZM738.117 117.217V128.887H781.721V143.193H738.117V170H720.002V102.91H784.113V117.217H738.117ZM799.592 170V102.91H817.707V170H799.592ZM912.678 165.41C910.334 166.387 907.974 167.266 905.598 168.047C903.221 168.828 900.764 169.495 898.225 170.049C895.686 170.635 893 171.074 890.168 171.367C887.368 171.66 884.357 171.807 881.135 171.807C874.299 171.807 868 171.074 862.238 169.609C856.509 168.145 851.561 165.947 847.395 163.018C843.26 160.055 840.038 156.377 837.727 151.982C835.415 147.555 834.26 142.396 834.26 136.504C834.26 130.612 835.415 125.469 837.727 121.074C840.038 116.647 843.26 112.969 847.395 110.039C851.561 107.077 856.509 104.863 862.238 103.398C868 101.934 874.299 101.201 881.135 101.201C884.357 101.201 887.368 101.348 890.168 101.641C893 101.934 895.686 102.373 898.225 102.959C900.764 103.512 903.221 104.18 905.598 104.961C907.974 105.742 910.334 106.621 912.678 107.598V123.906C910.822 122.897 908.869 121.904 906.818 120.928C904.768 119.919 902.505 119.023 900.031 118.242C897.557 117.428 894.839 116.777 891.877 116.289C888.915 115.768 885.578 115.508 881.867 115.508C876.171 115.508 871.434 116.094 867.658 117.266C863.915 118.438 860.92 120 858.674 121.953C856.428 123.906 854.849 126.152 853.938 128.691C853.026 131.198 852.57 133.802 852.57 136.504C852.57 138.294 852.766 140.068 853.156 141.826C853.547 143.551 854.198 145.195 855.109 146.758C856.021 148.288 857.209 149.704 858.674 151.006C860.139 152.308 861.962 153.431 864.143 154.375C866.324 155.319 868.863 156.068 871.76 156.621C874.689 157.142 878.059 157.402 881.867 157.402C885.578 157.402 888.915 157.174 891.877 156.719C894.839 156.23 897.557 155.596 900.031 154.814C902.505 154.033 904.768 153.154 906.818 152.178C908.869 151.169 910.822 150.143 912.678 149.102V165.41ZM396.613 221.217V232.887H440.217V247.193H396.613V274H378.498V206.91H442.609V221.217H396.613ZM458.088 274V206.91H476.203V259.303H525.178V274H458.088ZM626.545 240.504C626.545 246.266 625.487 251.36 623.371 255.787C621.255 260.182 618.228 263.86 614.289 266.822C610.35 269.785 605.565 272.031 599.934 273.561C594.335 275.058 588.036 275.807 581.037 275.807C574.038 275.807 567.707 275.058 562.043 273.561C556.411 272.031 551.61 269.785 547.639 266.822C543.667 263.86 540.607 260.182 538.459 255.787C536.311 251.36 535.236 246.266 535.236 240.504C535.236 234.742 536.311 229.664 538.459 225.27C540.607 220.842 543.667 217.148 547.639 214.186C551.61 211.223 556.411 208.993 562.043 207.496C567.707 205.966 574.038 205.201 581.037 205.201C588.036 205.201 594.335 205.966 599.934 207.496C605.565 208.993 610.35 211.223 614.289 214.186C618.228 217.148 621.255 220.842 623.371 225.27C625.487 229.664 626.545 234.742 626.545 240.504ZM608.234 240.504C608.234 237.997 607.827 235.507 607.014 233.033C606.232 230.527 604.816 228.281 602.766 226.295C600.747 224.309 597.98 222.698 594.465 221.461C590.949 220.224 586.473 219.605 581.037 219.605C577.391 219.605 574.185 219.898 571.418 220.484C568.651 221.038 566.258 221.819 564.24 222.828C562.222 223.837 560.529 225.025 559.162 226.393C557.795 227.727 556.704 229.176 555.891 230.738C555.077 232.268 554.491 233.88 554.133 235.572C553.807 237.232 553.645 238.876 553.645 240.504C553.645 242.164 553.807 243.84 554.133 245.533C554.491 247.226 555.077 248.854 555.891 250.416C556.704 251.946 557.795 253.378 559.162 254.713C560.529 256.048 562.222 257.219 564.24 258.229C566.258 259.205 568.651 259.986 571.418 260.572C574.185 261.126 577.391 261.402 581.037 261.402C586.473 261.402 590.949 260.784 594.465 259.547C597.98 258.31 600.747 256.699 602.766 254.713C604.816 252.727 606.232 250.497 607.014 248.023C607.827 245.517 608.234 243.01 608.234 240.504ZM707.746 206.91L724.885 253.492L743.439 206.91H762.238L735.285 274H715.168L697.639 228.883L680.158 274H660.041L633.039 206.91H651.887L670.051 252.516L687.58 206.91H707.746Z" fill="white"/>
</svg>
