<svg width="920" height="276" viewBox="0 0 920 276" fill="none" xmlns="http://www.w3.org/2000/svg">
<path d="M188.998 0.479098C187.56 0.998476 185.802 2.83628 179.17 10.9865C177.212 13.4236 174.136 17.1791 172.378 19.3365C170.62 21.454 168.383 24.2507 167.384 25.5291C166.385 26.8076 164.068 29.6842 162.19 32.0014C160.312 34.2787 156.916 38.5136 154.639 41.3502C152.362 44.1868 149.006 48.3019 147.208 50.4993C145.37 52.6966 143.013 55.6131 141.974 56.9715C140.896 58.3299 137.42 62.6048 134.224 66.5201C131.027 70.3955 127.192 75.1498 125.634 77.1074C124.116 79.0251 119.961 84.139 116.445 88.4539C110.252 96.0448 107.056 100 91.6745 119.017C80.2482 133.12 79.9285 133.56 79.1695 134.679C78.8099 135.318 78.2106 135.797 77.891 135.797C77.5714 135.757 74.7747 132.401 71.6984 128.286C60.2721 112.985 59.473 112.106 55.9972 111.586C54.0395 111.307 51.4426 112.106 49.8046 113.544C47.7271 115.302 46.6084 119.257 47.4874 121.494C47.9268 122.533 52.8809 138.953 55.9173 149.381C56.3967 151.019 57.2357 153.736 57.7551 155.374C58.2745 157.012 58.7139 158.73 58.674 159.169C58.674 159.609 57.835 161.007 56.7962 162.246C50.8433 169.517 46.4086 174.95 42.5333 179.745C40.1362 182.741 32.1058 192.649 24.7146 201.758C2.58108 229.086 1.26266 230.764 0.58347 232.282C-1.21438 236.637 1.30261 241.591 5.93707 242.869C8.09448 243.428 11.0509 242.629 13.4481 240.792C17.3634 237.715 22.1577 233.92 35.222 223.412C42.8529 217.3 50.4838 211.187 52.2017 209.829C53.9197 208.47 55.8773 206.912 56.5166 206.353C65.8254 198.602 171.419 114.503 172.458 114.023C174.416 113.104 177.931 113.344 179.889 114.583C180.808 115.142 183.125 117.859 186.042 121.734C188.599 125.17 190.756 128.086 190.796 128.166C190.916 128.326 193.113 126.608 195.55 124.451C196.229 123.852 198.147 122.253 199.865 120.895C201.623 119.537 208.135 114.343 214.408 109.349C220.64 104.355 226.154 100 226.593 99.6804L227.432 99.0811L226.553 95.9649C226.034 94.2469 224.955 90.6113 224.116 87.8546C223.317 85.0979 222.158 81.1426 221.559 79.0651C220.96 76.9876 220.201 74.5505 219.921 73.6715C219.641 72.7926 218.922 70.4354 218.323 68.4778C216.605 62.6847 215.287 58.25 214.488 55.693C213.689 53.1361 209.693 39.6323 207.696 32.7205C207.016 30.4033 206.217 27.8064 205.938 26.9275C205.099 24.3705 203.94 20.5351 202.142 14.3425C199.745 6.19226 198.706 3.43556 197.428 2.23699C195.231 0.119528 191.955 -0.55966 188.998 0.479098Z" fill="#34D399"/>
<path d="M325.97 32.7608C324.891 33.2402 309.15 45.6254 293.249 58.49C290.852 60.4477 287.057 63.484 284.859 65.2419C282.662 66.9599 275.151 72.9527 268.199 78.546C261.248 84.1393 253.497 90.292 251.02 92.2896C244.388 97.6032 227.967 110.747 223.133 114.623C216.781 119.737 214.743 121.375 213.345 122.453C212.626 123.013 202.638 131.003 191.171 140.232C162.246 163.484 164.284 162.006 161.087 162.006C157.851 162.006 155.934 160.408 150.82 153.496C148.303 150.06 146.105 147.264 145.906 147.264C145.746 147.224 143.468 148.982 140.872 151.099C138.235 153.257 134.679 156.133 132.961 157.492C130.484 159.489 118.538 169.078 110.987 175.15C109.629 176.229 109.389 177.228 110.068 178.866C110.268 179.385 110.987 181.663 111.666 183.98C112.386 186.297 113.265 189.254 113.664 190.572C114.064 191.89 114.863 194.567 115.462 196.565C116.501 200.041 116.82 201.079 119.018 208.351C119.937 211.347 122.653 220.376 124.891 227.927C125.33 229.366 126.009 231.683 126.449 233.121C127.767 237.676 129.166 242.43 130.045 245.307C130.524 246.825 131.123 248.902 131.403 249.901C131.722 250.9 132.242 252.578 132.601 253.696C132.921 254.775 134.12 258.651 135.198 262.286C138.035 271.835 138.674 273.153 141.311 274.512C142.829 275.271 146.824 275.311 148.263 274.552C149.981 273.673 151.059 272.474 157.811 264.084C161.167 259.929 164.883 255.335 166.041 253.896C167.2 252.458 170.037 248.942 172.354 246.106C174.631 243.229 177.268 239.993 178.187 238.914C179.106 237.796 180.584 235.998 181.423 234.879C183.061 232.801 190.652 223.373 194.607 218.539C196.925 215.742 204.555 206.313 209.629 199.961C211.147 198.083 214.224 194.328 216.461 191.611C218.698 188.894 221.615 185.258 222.933 183.58C225.171 180.744 229.486 175.35 235.039 168.598C238.515 164.323 243.469 158.211 245.706 155.374C251.659 147.863 258.81 139.233 259.05 139.233C259.21 139.233 262.726 143.788 266.921 149.301C271.076 154.855 275.111 160.128 275.87 160.967C277.548 162.845 279.226 163.604 281.623 163.604C286.138 163.604 289.454 160.328 289.454 155.893C289.414 154.136 289.134 153.057 284.899 139.034C283.421 134.199 281.663 128.366 280.984 126.049C280.305 123.732 279.426 120.815 279.026 119.577C278.587 118.298 278.267 116.86 278.267 116.381C278.267 115.342 279.745 113.264 284.979 106.912C286.937 104.595 293.529 96.4845 299.642 88.8936C305.754 81.3027 313.026 72.3135 315.782 68.9175C318.539 65.5216 322.534 60.5675 324.652 57.9307C326.769 55.2938 329.965 51.3386 331.763 49.1412C335.679 44.3469 336.797 42.1895 336.757 39.7524C336.677 34.3589 330.884 30.6034 325.97 32.7608Z" fill="#34D399"/>
<path d="M416.096 85.5098V138H397.98V85.5098H369.514V70.9102H444.611V85.5098H416.096ZM474.738 138H456.623V70.9102H502.033C506.916 70.9102 511.05 71.4147 514.436 72.4238C517.854 73.4329 520.62 74.8652 522.736 76.7207C524.885 78.5762 526.431 80.8223 527.375 83.459C528.352 86.0632 528.84 88.9766 528.84 92.1992C528.84 95.0312 528.433 97.5052 527.619 99.6211C526.838 101.737 525.764 103.56 524.396 105.09C523.062 106.587 521.499 107.857 519.709 108.898C517.919 109.94 516.031 110.803 514.045 111.486L536.018 138H514.826L494.514 113.293H474.738V138ZM510.529 92.1016C510.529 90.7995 510.35 89.6927 509.992 88.7812C509.667 87.8698 509.081 87.1374 508.234 86.584C507.388 85.998 506.249 85.5749 504.816 85.3145C503.417 85.054 501.659 84.9238 499.543 84.9238H474.738V99.2793H499.543C501.659 99.2793 503.417 99.1491 504.816 98.8887C506.249 98.6283 507.388 98.2214 508.234 97.668C509.081 97.082 509.667 96.3333 509.992 95.4219C510.35 94.5104 510.529 93.4036 510.529 92.1016ZM602.912 125.305H565.51L559.211 138H538.996L574.104 70.9102H594.318L629.426 138H609.211L602.912 125.305ZM572.004 112.219H596.516L584.309 87.5117L572.004 112.219ZM658.527 85.2168V96.8867H702.131V111.193H658.527V138H640.412V70.9102H704.523V85.2168H658.527ZM738.117 85.2168V96.8867H781.721V111.193H738.117V138H720.002V70.9102H784.113V85.2168H738.117ZM799.592 138V70.9102H817.707V138H799.592ZM912.678 133.41C910.334 134.387 907.974 135.266 905.598 136.047C903.221 136.828 900.764 137.495 898.225 138.049C895.686 138.635 893 139.074 890.168 139.367C887.368 139.66 884.357 139.807 881.135 139.807C874.299 139.807 868 139.074 862.238 137.609C856.509 136.145 851.561 133.947 847.395 131.018C843.26 128.055 840.038 124.377 837.727 119.982C835.415 115.555 834.26 110.396 834.26 104.504C834.26 98.612 835.415 93.4688 837.727 89.0742C840.038 84.6471 843.26 80.9688 847.395 78.0391C851.561 75.0768 856.509 72.8633 862.238 71.3984C868 69.9336 874.299 69.2012 881.135 69.2012C884.357 69.2012 887.368 69.3477 890.168 69.6406C893 69.9336 895.686 70.373 898.225 70.959C900.764 71.5124 903.221 72.1797 905.598 72.9609C907.974 73.7422 910.334 74.6211 912.678 75.5977V91.9062C910.822 90.8971 908.869 89.9043 906.818 88.9277C904.768 87.9186 902.505 87.0234 900.031 86.2422C897.557 85.4284 894.839 84.7773 891.877 84.2891C888.915 83.7682 885.578 83.5078 881.867 83.5078C876.171 83.5078 871.434 84.0938 867.658 85.2656C863.915 86.4375 860.92 88 858.674 89.9531C856.428 91.9062 854.849 94.1523 853.938 96.6914C853.026 99.1979 852.57 101.802 852.57 104.504C852.57 106.294 852.766 108.068 853.156 109.826C853.547 111.551 854.198 113.195 855.109 114.758C856.021 116.288 857.209 117.704 858.674 119.006C860.139 120.308 861.962 121.431 864.143 122.375C866.324 123.319 868.863 124.068 871.76 124.621C874.689 125.142 878.059 125.402 881.867 125.402C885.578 125.402 888.915 125.174 891.877 124.719C894.839 124.23 897.557 123.596 900.031 122.814C902.505 122.033 904.768 121.154 906.818 120.178C908.869 119.169 910.822 118.143 912.678 117.102V133.41ZM396.613 189.217V200.887H440.217V215.193H396.613V242H378.498V174.91H442.609V189.217H396.613ZM458.088 242V174.91H476.203V227.303H525.178V242H458.088ZM626.545 208.504C626.545 214.266 625.487 219.36 623.371 223.787C621.255 228.182 618.228 231.86 614.289 234.822C610.35 237.785 605.565 240.031 599.934 241.561C594.335 243.058 588.036 243.807 581.037 243.807C574.038 243.807 567.707 243.058 562.043 241.561C556.411 240.031 551.61 237.785 547.639 234.822C543.667 231.86 540.607 228.182 538.459 223.787C536.311 219.36 535.236 214.266 535.236 208.504C535.236 202.742 536.311 197.664 538.459 193.27C540.607 188.842 543.667 185.148 547.639 182.186C551.61 179.223 556.411 176.993 562.043 175.496C567.707 173.966 574.038 173.201 581.037 173.201C588.036 173.201 594.335 173.966 599.934 175.496C605.565 176.993 610.35 179.223 614.289 182.186C618.228 185.148 621.255 188.842 623.371 193.27C625.487 197.664 626.545 202.742 626.545 208.504ZM608.234 208.504C608.234 205.997 607.827 203.507 607.014 201.033C606.232 198.527 604.816 196.281 602.766 194.295C600.747 192.309 597.98 190.698 594.465 189.461C590.949 188.224 586.473 187.605 581.037 187.605C577.391 187.605 574.185 187.898 571.418 188.484C568.651 189.038 566.258 189.819 564.24 190.828C562.222 191.837 560.529 193.025 559.162 194.393C557.795 195.727 556.704 197.176 555.891 198.738C555.077 200.268 554.491 201.88 554.133 203.572C553.807 205.232 553.645 206.876 553.645 208.504C553.645 210.164 553.807 211.84 554.133 213.533C554.491 215.226 555.077 216.854 555.891 218.416C556.704 219.946 557.795 221.378 559.162 222.713C560.529 224.048 562.222 225.219 564.24 226.229C566.258 227.205 568.651 227.986 571.418 228.572C574.185 229.126 577.391 229.402 581.037 229.402C586.473 229.402 590.949 228.784 594.465 227.547C597.98 226.31 600.747 224.699 602.766 222.713C604.816 220.727 606.232 218.497 607.014 216.023C607.827 213.517 608.234 211.01 608.234 208.504ZM707.746 174.91L724.885 221.492L743.439 174.91H762.238L735.285 242H715.168L697.639 196.883L680.158 242H660.041L633.039 174.91H651.887L670.051 220.516L687.58 174.91H707.746Z" fill="white"/>
</svg>
